<?xml version="1.0" encoding="UTF-8"?>
<svg viewBox="0 0 178.55356 243.99197" xmlns="http://www.w3.org/2000/svg" xmlns:xlink="http://www.w3.org/1999/xlink">
 <defs>
  <linearGradient id="c">
   <stop stop-color="#fff" offset="0"/>
   <stop stop-color="#fff" stop-opacity="0" offset="1"/>
  </linearGradient>
  <linearGradient id="e">
   <stop stop-color="#a40" offset="0"/>
   <stop stop-color="#a40" stop-opacity="0" offset="1"/>
  </linearGradient>
  <linearGradient id="d">
   <stop stop-color="#dcdcdc" offset="0"/>
   <stop stop-color="#dcdcdc" stop-opacity="0" offset="1"/>
  </linearGradient>
  <linearGradient id="o" x1="337.9" x2="348" y1="413.96" y2="523.06" gradientUnits="userSpaceOnUse">
   <stop stop-color="#f60" offset="0"/>
   <stop stop-color="#fc0" stop-opacity="0" offset="1"/>
  </linearGradient>
  <linearGradient id="l" x1="382.02" x2="390.59" y1="470.57" y2="349.85" gradientUnits="userSpaceOnUse">
   <stop stop-color="#ffe680" offset="0"/>
   <stop stop-color="#ffe680" stop-opacity="0" offset="1"/>
  </linearGradient>
  <linearGradient id="j" x1="439.29" x2="476.48" y1="396.12" y2="472.55" gradientUnits="userSpaceOnUse">
   <stop stop-color="#f60" offset="0"/>
   <stop stop-color="#f60" stop-opacity="0" offset="1"/>
  </linearGradient>
  <linearGradient id="b" x1="473.43" x2="508.26" y1="463.16" y2="471.36" gradientUnits="userSpaceOnUse">
   <stop stop-color="#e3dedb" offset="0"/>
   <stop stop-color="#e3dedb" stop-opacity="0" offset="1"/>
  </linearGradient>
  <linearGradient id="h" x1="329.14" x2="331.38" y1="519.32" y2="539.74" gradientUnits="userSpaceOnUse">
   <stop stop-color="#a05a2c" offset="0"/>
   <stop stop-color="#a05a2c" stop-opacity="0" offset="1"/>
  </linearGradient>
  <linearGradient id="f" x2="0" y1="438.44" y2="503.34" gradientUnits="userSpaceOnUse">
   <stop stop-color="#f4e3d7" offset="0"/>
   <stop stop-color="#f4e3d7" stop-opacity="0" offset="1"/>
  </linearGradient>
  <linearGradient id="p" x1="342.63" x2="358.86" y1="375.49" y2="486.61" gradientUnits="userSpaceOnUse" xlink:href="#e"/>
  <linearGradient id="n" x1="426.8" x2="385.2" y1="513.3" y2="450.67" gradientUnits="userSpaceOnUse" xlink:href="#d"/>
  <linearGradient id="m" x1="317.38" x2="294.15" y1="536.74" y2="461.86" gradientUnits="userSpaceOnUse" xlink:href="#d"/>
  <linearGradient id="k" x1="428.3" x2="381.84" y1="97.071" y2="400.12" gradientUnits="userSpaceOnUse" xlink:href="#e"/>
  <linearGradient id="i" x1="273.15" x2="364.84" y1="666.13" y2="503.99" gradientUnits="userSpaceOnUse" xlink:href="#c"/>
  <linearGradient id="g" x1="315.71" x2="325.77" y1="527" y2="514.13" gradientTransform="matrix(1.1415 .079907 -.06983 .99756 -12.078 -24.954)" gradientUnits="userSpaceOnUse" xlink:href="#c"/>
  <radialGradient id="a" cx="417.5" cy="506.65" r="24.643" gradientTransform="matrix(1 0 0 1.4783 0 -242.31)" gradientUnits="userSpaceOnUse">
   <stop stop-color="#f95" offset="0"/>
   <stop stop-color="#f95" stop-opacity="0" offset="1"/>
  </radialGradient>
 </defs>
 <path transform="matrix(.49443 0 0 .49443 -83.301 -58.134)" d="m385.53 117.59c-0.49684 0.03292-0.989 0.11669-1.4688 0.25 0 0-42.047 11.344-66.5 51.844-4.3179 7.1515-7.4351 13.831-9.7188 20.062-0.28124-3.731-0.39783-7.6935-0.3125-11.875 0.80423-39.407-34.5-58.688-34.5-58.688-3.2997-1.8975-7.504-0.9348-9.6494 2.2095s-1.5084 7.4101 1.4618 9.7905c0 0 4.0877 3.3016 7.2188 11.062s5.0444 19.422-1.5 36.438c-8.9046 23.152-7.3397 47.546-4.4375 64.438-5.7665-4.2318-12.409-8.847-20.719-13.781-12.549-7.4511-23.917-9.5802-32.188-9.6875s-14.094 1.9688-14.094 1.9688c-2.5854 0.97149-4.3991 3.3215-4.6838 6.0687s1.0087 5.4191 3.34 6.9001c0 0 20.4 13.35 30.531 29.812 4.8416 7.8675 7.1082 18.582 5.9375 24.625-0.58536 3.0213-1.6326 4.5399-2.9688 5.4062s-3.7218 1.6038-8.6875 0.46875c-3.4281-0.78356-8.437-4.6458-13.25-11.062s-9.4106-14.951-13.25-23.406c-7.6789-16.91-12.406-33.281-12.406-33.281-0.93671-3.3078-4.0583-5.5105-7.4887-5.2843s-6.2358 2.8197-6.73 6.2218c0 0-2.9689 20.54 1.375 62.531 2.3573 22.787 13.998 40.69 22.594 52.75 1.1985 1.6815 1.4467 2.1273 2.5 3.5938-1.3148-0.96672-2.6155-2.0639-3.8438-3.25-4.7213-4.5592-7.9375-9.3125-7.9375-9.3125-1.9023-2.8419-5.5253-3.9781-8.7098-2.7313s-5.0731 4.5407-4.5402 7.9188c0 0 1.2696 7.8615 3.2812 17.094s4.3854 19.496 8.1875 26.625c4.2816 8.028 12.212 11.331 19 13.562 6.2933 2.0686 12.068 3.5706 15.656 5.3438-0.19823 0.44519-0.15369 0.48575-0.6875 1.2188-2.0172 2.7698-5.5938 5.6875-5.5938 5.6875-2.9994 2.2551-3.7952 6.4197-1.8384 9.6217s6.0258 4.3937 9.4009 2.7533l9-4.1562c-0.54837 0.42876-1.0325 0.93389-1.4375 1.5 0 0-1.8921 2.8162-3.9688 6.75-0.07816 0.14806-0.07743 0.09822-0.15625 0.25-0.13866 0.267-0.16844 0.33446-0.125 0.25-1.5717 2.6178-3.0978 5.95-4.25 10h-0.03125c-0.02622 0.07773-0.03645 0.17184-0.0625 0.25-0.01614 0.05813-0.04653 0.09783-0.0625 0.15625-2.7389 8.2828-4.4911 18.902-0.875 29.75 0.74577 2.2373 1.5419 4.3604 2.375 6.4062 0.07295 0.23365 0.17445 0.42545 0.25 0.65625 3.3453 10.22 9.167 17.649 12.812 21.688l-0.03125 0.03125c0.13311 0.16092 0.12257 0.09856 0.25 0.25 1.4712 1.7484 2.6875 3.0625 2.6875 3.0625 1.0321 1.0584 2.3618 1.7778 3.8125 2.0625l5.1875 1.0312 5.9062 6.7188c1.027 1.1556 2.3951 1.9546 3.9062 2.2812h0.03125c0.76228 0.3339 1.5761 0.53472 2.4062 0.59375 0.62365 1.4776 1.1482 2.9397 1.8438 4.4375 3.1224 6.7237 6.5568 12.734 10.031 17.625 3.0299 4.2652 5.9153 7.6265 9.375 10.125 3.9675 6.0956 8.1232 11.925 12.469 17.406 0.01409 0.01777 0.01716 0.04473 0.03125 0.0625 2e-4 4.3e-4 -1e-5 0.03124 0 0.03125 2.2767 2.8693 4.6108 5.6279 6.9375 8.2812 0.64627 0.73676 0.65838 0.74619 0.03125 0.03125 1.5482 1.7648 3.1061 3.5022 4.6875 5.1875 0.33405 0.35627 0.34414 0.36465 0.03125 0.03125 0.78106 0.83202 1.5503 1.5912 2.2812 2.3438l0.09375 0.09375c3.1e-4 4.5e-4 0 0.03125 0 0.03125 0.85156 0.87653 1.669 1.6734 2.4062 2.4062 0.75628 0.75192 1.5417 1.5459 2.4062 2.375 3.2304 3.0981 6.4692 5.9858 9.7188 8.6562l0.09375 0.03125c3.2119 2.6365 6.4117 5.0943 9.6562 7.3125l0.25 0.125c0.64505 0.44375 1.3316 0.97648 2.1875 1.5312l0.125 0.0625c0.7029 0.45592 1.4661 0.95076 2.3125 1.4688 2.9944 1.8326 5.9848 3.4184 8.875 4.7812-0.2561-0.12074-0.20802-0.09136 0.1875 0.09375-0.21405-0.10008-0.02626 0.01151 0.5625 0.28125l0.125 0.03125c2.3299 1.0628 4.6394 1.9858 6.9688 2.75 1.1644 0.38264 2.005 0.45907 2.5312 0.4375-0.52051 0.02135-1.3407-0.02654-2.5-0.40625 0.73402 0.24035 1.528 0.45845 2.3438 0.6875 3.1413 0.88211 6.2384 1.463 9.2812 1.6562 0.73038 0.04639 1.4923 0.0625 2.2812 0.0625 1.1305 0 2.2288-0.02318 3.2812-0.0625-0.5098 0.01894-0.47625 0.02336 0.125 0 1.8083-0.07042 3.6367-0.18557 5.4688-0.375 2.1203-0.21947 4.1835-0.54513 6.1875-0.90625-0.46491 0.0838-0.37333 0.08296 0.25-0.03125l1.3438-0.25c0.07819-0.01568 0.19226-0.06271 0.34375-0.09375-0.59322 0.1216-0.45127 0.12481 0.4375-0.0625 0.769-0.16205 1.4694-0.32001 2.0938-0.46875 0.65662-0.1566 1.3539-0.34274 2.0625-0.53125-0.83501 0.22217-0.79201 0.22332 0.15625-0.03125 0.82075-0.22021 1.4546-0.40769 1.875-0.53125 0.62738-0.18456 1.299-0.39932 2-0.625h0.0625c1.9877-0.64197 3.97-1.3487 5.9375-2.1562 0.61687-0.25318 1.1136-0.48872 1.5-0.65625-0.09352 0.04055 0.04314-0.02778 0.40625-0.1875 0.33998-0.14954 0.67498-0.28943 1-0.4375 2.8652-1.3048 5.6174-2.769 8.3125-4.375 0.65262-0.38888 1.2291-0.75552 1.7188-1.0625 0.02586-0.01622 0.00606-0.01515 0.03125-0.03125 0.24856-0.15601 0.54607-0.33033 0.90625-0.5625 0.84732-0.54632 1.6642-1.1303 2.4688-1.6875 0.03728-0.02582 0.08778-0.03665 0.125-0.0625h0.03125c3.3925-2.3571 6.6525-4.9499 9.75-7.75 0.03884-0.03511 0.08621-0.05857 0.125-0.09375 0.02379-0.02123 0.03842-0.00938 0.0625-0.03125 4.7273-4.2925 9.1014-9.064 13.156-14.25 0.42022-0.53745 0.8162-1.0725 1.1875-1.5625 0.0716-0.09449 0.09928-0.13232 0.09375-0.125 0.18403-0.24352 0.42409-0.57131 0.71875-0.96875 0.27172-0.36644 0.54825-0.72867 0.8125-1.0938-0.01219 0.01036 0.36767-0.50106 1.0938-1.5312 0.0315-0.04472 0.02958-0.01572 0.0625-0.0625 0.85855-1.22 1.6378-2.4129 2.375-3.5312l0.0625-0.09375 0.0625-0.09375c4.0893-6.2258 7.7439-12.902 11.031-19.906-0.92122 1.9628-0.89013 1.9392 0.0625-0.09375 0.65255-1.3926 1.2333-2.742 1.8125-4.0625l0.03125-0.0625c0.00842-0.01894 0.02284-0.01206 0.03125-0.03125 0.33971-0.77491 0.68819-1.5438 1-2.2812 0.03566-0.08435 0.13852-0.33347 0.3125-0.75 0.17877-0.42803 0.37363-0.88183 0.5625-1.3438 0.16209-0.3963 0.30623-0.78245 0.46875-1.1875 0.13949-0.34777 0.30796-0.74805 0.46875-1.1562 0.25723-0.65299 0.53317-1.3295 0.8125-2.0625 0.6393-1.678 0.6382-1.7211 0.03125-0.125 0.19415-0.51051 0.34502-0.98956 0.5-1.4062 0.19514-0.52455 0.46462-1.1769 0.75-1.9688 0.41441-1.1504 0.83395-2.3085 1.2188-3.4375 0.1901-0.55778 0.32074-1.0113 0.46875-1.4688l17.5-3.625c2.8534-0.59373 5.0782-2.8309 5.6562-5.6875l0.34375-1.7188c1.3774 0.02049 2.5074 0.15853 4.0938 0.03125 6.1272-0.49162 14.452-2.2818 19.625-9.6875 4.3121-6.1733 6.6676-14.775 8.6875-24.562s3.2234-20.224 2.7812-28.75c-0.93043-18.201-3.6763-28.015-7.125-34.094-1.7244-3.0395-3.7081-5.1281-5.75-6.4375-1.021-0.65472-2.0334-1.1088-2.9375-1.375-0.64489-0.18988-1.174-0.23448-1.625-0.28125v-0.0625l-9.4375-1.0938-0.59375-1.1875c-0.71233-1.4105-1.864-2.5512-3.2812-3.25l-9.6562-4.8438c3.055-0.04019 8.4851 0.43751 16.156 0.4375 11.53 0 22.312 8.9062 22.312 8.9062 2.9082 2.5125 7.268 2.3337 9.9607-0.40855s2.792-7.1045 0.22684-9.9664c0 0-3.84-4.241-8.2188-8.5312-2.1894-2.1451-4.487-4.2909-6.7188-6.0938-1.1159-0.90142-2.2088-1.7028-3.4375-2.4375s-2.3222-1.75-5.5625-1.75c2.5095 0 0.54028 0.02346-0.9375-0.78125s-3.4144-2.0712-5.1875-3.4688-3.4006-2.967-4.3438-4.1562c-0.12934-0.16308-0.12641-0.19989-0.21875-0.34375 0.18653-0.28223 0.19801-0.41076 0.59375-0.8125 1.583-1.607 4.3023-3.8541 7.4688-6.4375 6.3328-5.1668 14.559-11.721 20.719-20.344 7.2971-10.216 6.7456-22.853 5.2812-32.719s-4.4062-17.656-4.4062-17.656c-0.57362-1.5231-1.6408-2.8103-3.0312-3.6562 2.2391-5.6045 4.2983-11.245 6-16.562 4.1172-12.866-2.8723-24.784-9.3438-33.312s-13.625-14.5-13.625-14.5c-2.6129-2.2269-6.426-2.3274-9.1525-0.24104s-3.6264 5.7931-2.16 8.8973c0 0 1.9417 4.1905 3.4688 9.5s1.9652 11.679 1.2812 13.594c-0.93302 2.6125-3.704 5.2334-6.5312 6.5-1.1569 0.5183-2.0902 0.63605-2.8125 0.71875-0.12056-0.34289-0.24736-0.53389-0.34375-1.0625-0.35145-1.9274-0.54093-4.8453-0.5-8.2812 0.08187-6.8719 1.0947-15.849 2.8125-24.781 3.0014-15.607 16.688-30.625 16.688-30.625 2.3293-2.4472 2.6704-6.1748 0.82388-9.0041s-5.396-4.0178-8.5739-2.8709c0 0-7.735 2.7589-15.969 8.3125s-17.831 14.229-20.156 27.25c-1.0987 6.1529-7.1515 13.592-13.875 19.5 1.0152-4.9414 1.7139-10.109 1.1562-15.406-1.8053-17.15-14.812-29.969-14.812-29.969-2.1156-2.2405-5.4121-2.9075-8.2324-1.6657s-4.5542 4.1236-4.3301 7.197c0 0 0.30822 4.4159 0.0625 10.031s-1.3374 12.393-2.875 15.469c-0.39303 0.78605-2.9877 3.0058-6.3125 5.375 1.0108-2.7536 1.8625-5.6299 2.2812-8.6562 0.73268-5.2957 0.15375-11.446-3.6875-16.469-2.9592-3.8697-7.3744-16.075-10.062-26.562s-4.25-19.531-4.25-19.531c-0.5451-3.0942-3.0125-5.4903-6.1213-5.9445s-6.1586 1.1357-7.5662 3.9445c0 0-7.9375 16.096-7.9375 41.812 0 10.644-3.3036 19.168-6.8125 24.969-0.81293 1.344-1.6213 2.5069-2.4062 3.5312-1.1718-4.5854-2.7405-11.074-4.9688-20.844-3.9973-17.527 3.089-36.767 11.812-51.75s18.5-25.125 18.5-25.125c2.0964-2.1604 2.648-5.3877 1.3882-8.1218s-4.0714-4.4117-7.0757-4.2219zm-23.188 113.84-0.125 0.09375-0.09375 0.03125c0.01377-0.05241 0.04786-0.049 0.21875-0.125z" fill="#2b2200" fill-rule="evenodd"/>
 <g transform="matrix(.49443 0 0 .49443 -83.301 -58.134)">
  <path d="m263.57 403.79-12.143 6.4286-5.7143 10-12.857 3.5714s-15.974 11.608-7.8571 44.286c3.7172 14.965 15 25 15 25l9.2857 1.4286 7.1429 9.2857h12.857s-12.857-62.857-5.7143-100z" fill-rule="evenodd" stroke="#000"/>
  <path d="m466 443.22c0 79.646-36.127 160.57-102.43 160.57-38.437 0-111.86-80.926-111.86-160.57s42-122.29 101.14-122.29 113.14 42.64 113.14 122.29z" fill="#f4e3d7"/>
  <path d="m442.14 506.65a24.643 36.429 0 1 1 -49.286 0 24.643 36.429 0 1 1 49.286 0z" fill="url(#a)" opacity=".83254"/>
  <path d="m466 443.22c0 79.646-36.127 160.57-102.43 160.57-38.437 0-111.86-80.926-111.86-160.57s42-122.29 101.14-122.29 113.14 42.64 113.14 122.29z" fill="url(#p)"/>
  <path d="m252.73 441.77s39.286 17.143 67.857 17.143 80-1.4286 111.43-14.286l31.429-12.857-2.8571 18.571s-34.286 20-50 38.571-60.714 17.143-72.143 14.286-12.143-13.571-19.286-14.286c-7.2482-0.72482-10.714 10.714-10.714 10.714s-14.286 5.7143-32.143-3.5714c-11.685-6.0764-25-28.571-23.571-54.286z" fill-rule="evenodd" stroke="#000"/>
  <path d="m305 548.08s45.374 12.53 91.429-9.2857c13.571-6.4286 20-10.714 20-10.714s-2.8572 7.8571-23.571 27.143c-22.931 21.35-27.143 21.429-27.143 21.429s-42.857-21.429-60.714-28.571z" fill-rule="evenodd" stroke="#000"/>
  <path d="m468.99 400.98s-14.148 7.074-18.078 15.72-10.218 42.444-9.432 62.88 12.576 37.728 12.576 37.728l22.794-4.716 1.572-7.86s17.192 2.9918 23.637-6.2342c5.7262-8.1977 10.936-33.851 10.161-48.786-1.7962-35.137-11.004-35.37-11.004-35.37l-13.362-1.572-2.358-4.716-12.576-6.288-3.93-0.78601z" fill-rule="evenodd" stroke="#000" stroke-width="1.1004"/>
  <path d="m259.61 450.31s32.325 13.132 48.487 13.132 101.02-7.0711 101.02-7.0711l27.274-9.0914-8.0812 16.162-10.102 8.0812-5.0508-12.122s-6.0609 6.0609-9.0914 15.152l-3.0305 9.0914-4.0406-19.193s-9.0914 0-17.173 13.132-9.0914 14.142-9.0914 14.142l-4.0406-25.254s-24.244-6.0609-30.305 7.0711 10.102 14.142 10.102 14.142-1.0102 10.102-14.142-1.0102-15.152-14.142-15.152-14.142-10.102 1.0102-13.132 13.132-5.0508 7.0711-5.0508 7.0711l-11.112-24.244s-2.0203 2.0203-2.0203 12.122-12.122-2.0203-12.122-12.122-8.0812 1.0102-8.0812 1.0102l-6.0609-19.193z" fill="url(#o)" fill-rule="evenodd" stroke="#000"/>
  <path d="m295.25 411.3s-12.143 15-15 20-6.4286 7.8571-6.4286 7.8571-6.4286-15.714-7.1429-20.714-5.7143 2.1429-8.5714 6.4286 1.4286 37.857 7.1429 46.429-2.1429 3.5714-2.1429 3.5714-20-27.857-20-40.714-5.7143 3.5714-5.7143 3.5714l-3.5714-31.429-18.571 8.5714s16.429-12.857 6.4286-18.571-27.143-5.7143-32.857-16.429-10.714-41.429-10.714-41.429 14.286 21.429 28.571 20-24.286-27.143-28.571-68.571-1.4286-60.714-1.4286-60.714 19.286 67.143 44.286 72.857 25-22.857 13.571-41.429-32.857-32.143-32.857-32.143 17.143-6.4286 40 7.1429 36.429 26.429 36.429 26.429-15-43.571-0.71428-80.714-7.8571-55.714-7.8571-55.714 31.429 17.143 30.714 52.143 12.857 56.429 12.857 56.429-12.143-22.857 10.714-60.714 62.143-48.571 62.143-48.571-41.429 42.857-32.143 83.571 7.8571 30 10.714 30 17.857-15 17.857-39.286 7.1429-38.571 7.1429-38.571 6.4286 37.143 15.714 49.286-10.714 37.857-10.714 37.857 25.714-9.2857 30.714-19.286 3.5714-29.286 3.5714-29.286 11.429 12.143 12.857 25.714-7.1428 32.857-7.1428 32.857 30.714-16.429 34.286-36.429 31.429-30 31.429-30-15 15.714-18.571 34.286-4.2857 37.143 0 41.429 17.857-0.71429 21.429-10.714-5-28.571-5-28.571 26.429 22.143 20.714 40-15 40-24.286 47.143-10.714 15-3.5714 15 25-15.714 25-25.714v-11.429s10.714 28.571 0 43.571-30.714 25-30.714 31.429 15 16.429 18.571 16.429 18.571 16.429 18.571 16.429-12.143-10.714-27.143-10.714-21.429-2.1429-24.286 2.8571-14.286 9.2857-14.286 9.2857-12.857-3.5714-13.571 17.857-32.143 80.714-32.143 80.714 25-65 22.857-80.714-10-16.429-10-16.429 12.143 26.429 5.7143 41.429-14.286 23.571-14.286 23.571 11.429-33.571 6.4286-42.143-6.4286-2.1429-6.4286-2.1429-0.71428 25.714-5 27.143 0.71429-2.1429-8.5714-15-15-2.1429-15-2.1429-12.143 5.7143-12.143 17.143v11.429s-20-15-22.857-30-4.2857-24.286-4.2857-24.286-12.857 5-12.143 20 1.4286 19.286 1.4286 19.286-25.714 7.8572-41.429-36.429z" fill="#f60" fill-rule="evenodd"/>
  <path d="m336.38 499.81s56.569 4.0406 68.69-7.0711 9.0914-29.294 9.0914-29.294-96.975 15.152-77.782 36.365z" fill="url(#n)" fill-rule="evenodd"/>
  <path d="m460 418.79c1.7581-34.845-29.952-53.86-0.92966-39.053 12.806 18.449 13.073 29.767 13.073 29.767l-12.143 9.2857z" fill-rule="evenodd" stroke="#000"/>
  <path d="m266.68 486.68s25.254 17.173 34.345 10.102-36.365-26.264-37.376-33.335-7.0711 11.112 3.0305 23.234z" fill="url(#m)" fill-rule="evenodd"/>
  <path d="m243.45 358.42s-7.8571 3.5714-17.143-5.7143-10-13.571-10-13.571 5.7143 29.286 19.286 32.857 30.714 1.4286 30.714 1.4286-15 4.2857-20.714 15 3.5714 27.143 3.5714 27.143 16.429-30.714 37.143-30.714 2.1428 4.2857-0.71429 12.857-2.8571 25-2.8571 22.143 16.429-19.286 22.857-23.571l6.4286-4.2857s-6.4286 12.143 0.71429 26.429 16.429 17.857 16.429 17.857-7.1429-36.429 0-41.429 17.143-5 17.143-5 11.429 3.5714 11.429 15.714 5.7143 29.286 5.7143 29.286 8.5714-22.857 20-22.857 18.571 10.714 18.571 10.714l5-13.571s2.8571-0.71429 7.8571 6.4286 7.1429 12.857 7.1429 5.7143v-24.286s2.8571-1.4286 15 1.4286 12.857 0 12.857 0-14.286-15.714-4.2857-27.857 31.429-12.143 31.429-12.143-28.571-9.2857-40-7.1429-7.8571 27.143-7.8571 27.143-9.2857 0-12.857-8.5714-5-14.286-5-14.286-5 10.714-2.1429 22.857 5 12.857 5 12.857l-17.143-20 0.71429 25s-12.857-5-15.714-20-10.714 22.857-10.714 22.857-5.7143-5.7143-10-17.857-26.429-12.143-31.429-5-7.8571 12.857-7.8571 12.857l-3.5714-12.143-10.714 5s0-14.286-15-12.143-15.714 6.4286-15.714 6.4286l-1.4286-17.143s-21.429 5.7143-32.143-0.71429z" fill="url(#l)" fill-rule="evenodd"/>
  <path d="m181.83 263.43s2.0203 46.467 17.173 61.619 31.315 16.162 31.315 16.162-8.0812-17.173-1.0102-20.203 16.162 1.0102 16.162 1.0102v-13.132l13.132-1.0102s7.0711-10.102 0-26.264-10.102-22.223-10.102-22.223 33.335 23.234 33.335 31.315 11.112-14.142 11.112-28.284v-34.345s12.122 44.447 23.234 46.467 13.132 2.0203 13.132 2.0203-5.0508-20.203 0-45.457 8.0812 31.315 22.223 39.396 28.284-23.234 28.284-23.234l-1.0102 23.234s29.294-7.0711 40.406-16.162 11.112-17.173 12.122-13.132-11.112 25.254-8.0812 35.355 5.0508 12.122 5.0508 12.122 26.264-31.315 37.376-34.345-14.142 27.274-12.122 45.457 29.294-5.0508 29.294-5.0508l-24.244 32.325s1.0102 12.122 13.132 12.122 25.254-3.0304 25.254-3.0304-30.305 16.162-40.406 5.0508-5.0508-23.234-5.0508-23.234h-19.193l6.0609-22.223h-20.203l-11.112-17.173s-12.122 7.0711-21.213 7.0711-14.142 26.264-14.142 26.264l-9.0914-21.213s-8.0812-5.0508-27.274 9.0914-28.284 40.406-28.284 40.406l6.0609-38.386s-24.244 11.112-29.294 14.142-16.162 20.203-16.162 20.203v-17.173l-18.183 6.0609v27.274l-22.223 1.0102s-40.406 0-45.457-89.904z" fill="url(#k)" fill-rule="evenodd"/>
  <path d="m447.14 430.22s19.286-0.71428 22.143 1.4286 5.7143 7.1429 5.7143 7.1429h12.143s11.429 9.2857 12.143 15-1.4286-12.857-1.4286-12.857l-2.1428-7.1429s3.5714-4.2857 5.7143 2.1429 5 5 4.2857 1.4286-5.7143-13.571-5.7143-13.571v-2.8571l-8.5714-2.1429-7.1428-2.8571-2.8572-5-12.143-6.4286s-3.5714-0.71429-3.5714-4.2857-2.8572-7.1428-2.8572-7.1428l-2.8571-5.7143-2.1429 7.1429 3.5714 12.143s-14.286 7.8572-14.286 23.571z" fill="url(#j)" fill-rule="evenodd"/>
  <path transform="matrix(.88032 .03327 -.037443 .99075 67.72 -16.549)" d="m522.86 462.01a15 41.786 0 1 1 -30 0 15 41.786 0 1 1 30 0z" fill="url(#b)" opacity=".83254"/>
  <path transform="matrix(1.1167 .037862 -.047498 1.1275 -65.559 -84.2)" d="m522.86 462.01a15 41.786 0 1 1 -30 0 15 41.786 0 1 1 30 0z" fill="url(#b)"/>
  <path d="m262.5 381.34c-6.9759 17.147-10.781 37.823-10.781 61.875 0 79.646 73.407 160.56 111.84 160.56 44.159 0 74.933-35.896 90.562-83.406-16.513 42.463-45.963 73.406-86.969 73.406-38.437-1e-5 -111.88-80.917-111.88-160.56 0-19.544 2.5279-36.871 7.2188-51.875z" fill="url(#i)"/>
  <path transform="matrix(.33017 -.16138 .38764 .83473 -61.744 152.9)" d="m442.14 506.65a24.643 36.429 0 1 1 -49.286 0 24.643 36.429 0 1 1 49.286 0z" fill="url(#a)" opacity=".52632"/>
  <path d="m311.64 525.34s16.407-0.28355 25.226 2.4819-14.106 17.884-14.992 9.333c-0.92216-8.9032-6.1987-5.0881-10.234-11.815z" fill="url(#h)" fill-rule="evenodd"/>
  <path d="m311.61 524.57s5.8149-12.84 3.0935-26.635 19.969 13.212 20.46 17.901-3.2204 14.304-21.565 9.5889c-0.55696-0.14315-1.9885-0.85523-1.9885-0.85523z" fill="url(#g)" fill-rule="evenodd"/>
  <path d="m479.82 409.4s-18.688 9.5964-16.668 46.467 4.5457 36.871 4.5457 36.871-16.668-43.942-4.5457-65.66 17.678-17.173 16.668-17.678z" fill="#e3e2db" fill-rule="evenodd"/>
  <path d="m500.9 416.08s-11.913 4.8495-14.192 29.615-0.79012 24.975-0.79012 24.975-5.6868-30.7 3.4983-44.182 12.031-9.9878 11.483-10.409z" fill="#e3e2db" fill-rule="evenodd" opacity=".59914"/>
  <path d="m255.06 503.34s-17.173-23.234-18.183-37.376 1.0102-30.305 1.0102-30.305l-1.5152-12.627h-4.5457s-15.152 21.213-8.5863 40.911 16.668 29.294 16.668 29.294l7.5761 1.5152 7.5762 8.5863z" fill="url(#f)" fill-rule="evenodd"/>
 </g>
</svg>
