<svg xmlns="http://www.w3.org/2000/svg" height="512" width="512"><path d="M126.275 380.36c-35.82 0-64.863 33.474-64.863 74.761V512h389.176v-56.879c0-41.287-29.042-74.762-64.863-74.762H191.137z" fill="#263c25"/><path d="M181.238 380.36L218.85 512h74.3l37.612-131.64H181.238z" fill="#ebf1fa"/><path d="M202.265 283.4v102.424L256 402.178l53.735-16.354V283.401z" fill="#d79b68"/><path d="M181.238 380.36l-37.38 112.142 46.726 12.84-4.068 6.658h32.334l-37.612-131.64zm149.524 0L293.15 512h32.334l-4.068-6.658 46.727-12.84-37.381-112.143z" fill="#308733"/><path d="M202.265 364.005L256 402.171l-35.044 37.175-39.718-58.987zM309.735 364.005L256 402.171l35.045 37.175 39.717-58.987z" fill="#cbdadd"/><path d="M255.987 413.073l38.614 21.232v-42.464z" fill="#292f33"/><path d="M255.987 413.073l38.614 21.232v-42.464z" fill="#0e5e7e" stroke="#0e5e7e" stroke-width="8.71" stroke-linecap="round" stroke-linejoin="round" stroke-miterlimit="10"/><path d="M255.987 413.073l-38.614 21.232v-42.464z" fill="#292f33"/><path d="M255.987 413.073l-38.614 21.232v-42.464z" fill="#0e5e7e" stroke="#0e5e7e" stroke-width="8.71" stroke-linecap="round" stroke-linejoin="round" stroke-miterlimit="10"/><path d="M265.214 457.704a9.229 9.229 0 01-9.233 9.233c-5.083 0-9.214-4.13-9.214-9.233a9.209 9.209 0 019.214-9.215c5.103 0 9.233 4.112 9.233 9.215M265.214 495.404a9.229 9.229 0 01-9.233 9.233c-5.083 0-9.214-4.13-9.214-9.233a9.209 9.209 0 019.214-9.214c5.103 0 9.233 4.112 9.233 9.214" fill="#007798"/><path d="M147.114 209.43c6.814 25.43-.555 49.508-16.434 53.763-15.898 4.26-34.32-12.909-41.133-38.338-6.814-25.43.555-49.51 16.453-53.769 15.879-4.255 34.3 12.914 41.114 38.344M422.453 224.855c-6.814 25.43-25.215 42.603-41.114 38.343-15.918-4.265-23.267-28.339-16.453-53.768C371.7 184 390.1 166.826 406.019 171.09c15.899 4.26 23.248 28.334 16.434 53.764" fill="#fbb06b"/><path d="M109.12 200.37c0-88.36 65.766-160.012 146.88-160.012 81.113 0 146.88 71.651 146.88 160.012 0 88.36-65.767 160.01-146.88 160.01-81.114 0-146.88-71.65-146.88-160.01" fill="#fbb06b"/><path d="M256 0c102.694 0 166.873 75.787 166.873 138.93 0 63.163-12.831 88.432-25.684 63.163-12.831-25.27-25.663-50.518-25.663-50.518s-77.01 0-102.695-25.27c0 0 38.516 75.788-38.494 0 0 0 12.831 50.519-64.2-12.624 0 0-38.495 25.249-51.347 88.412-3.545 17.516-25.664 0-25.664-63.163C89.126 75.787 140.474 0 256 0"/><path d="M314.85 301.603a3.79 3.79 0 00-3.255-1.824H202.412c-1.327 0-2.55.684-3.255 1.824a3.8 3.8 0 00-.124 3.731c.643 1.285 16.563 31.343 57.96 31.343 41.438 0 57.338-30.058 58.001-31.343a3.858 3.858 0 00-.144-3.731M258.589 259.917c-11.816 0-21.02-2.156-28.379-5.431 2.426 8.81 9.204 21.082 28.379 21.082s25.953-12.272 28.4-21.082c-7.38 3.275-16.584 5.43-28.4 5.43" fill="#d68e4c"/><path d="M309.304 233.496h-.187c-6.405 0-11.65-5.245-11.65-11.65v-18.139c0-6.426 5.245-11.67 11.65-11.67h.187c6.405 0 11.65 5.244 11.65 11.67v18.139c0 6.405-5.245 11.65-11.65 11.65M202.88 233.496h-.186c-6.406 0-11.65-5.245-11.65-11.65v-18.139c0-6.426 5.244-11.67 11.65-11.67h.186c6.406 0 11.65 5.244 11.65 11.67v18.139c0 6.405-5.244 11.65-11.65 11.65" fill="#101f04"/></svg>