<svg xmlns="http://www.w3.org/2000/svg" height="512" width="512"><path d="M98.191 380.36c-43.574 0-78.904 33.474-78.904 74.761V512h473.426v-56.879c0-41.287-35.33-74.762-78.904-74.762H98.19z" fill="#263c25"/><path d="M181.238 380.36L218.85 512h74.3l37.612-131.64H181.238z" fill="#ebf1fa"/><path d="M202.265 283.4v102.424L256 402.178l53.735-16.354V283.401z" fill="#f6cba1"/><path d="M181.238 380.36l-37.38 112.142 46.726 12.84-4.068 6.658h32.334l-37.612-131.64zm149.524 0L293.15 512h32.334l-4.068-6.658 46.727-12.84-37.381-112.143z" fill="#308733"/><path d="M202.265 364.005L256 402.171l-35.044 37.175-39.718-58.987zM309.735 364.005L256 402.171l35.045 37.175 39.717-58.987z" fill="#cbdadd"/><path d="M255.987 413.073l38.614 21.232v-42.464z" fill="#292f33"/><path d="M255.987 413.073l38.614 21.232v-42.464z" fill="#0e5e7e" stroke="#0e5e7e" stroke-width="8.71" stroke-linecap="round" stroke-linejoin="round" stroke-miterlimit="10"/><path d="M255.987 413.073l-38.614 21.232v-42.464z" fill="#292f33"/><path d="M255.987 413.073l-38.614 21.232v-42.464z" fill="#0e5e7e" stroke="#0e5e7e" stroke-width="8.71" stroke-linecap="round" stroke-linejoin="round" stroke-miterlimit="10"/><path d="M265.214 457.704a9.229 9.229 0 01-9.233 9.233c-5.083 0-9.214-4.13-9.214-9.233a9.209 9.209 0 019.214-9.215c5.103 0 9.233 4.112 9.233 9.215M265.214 495.404a9.229 9.229 0 01-9.233 9.233c-5.083 0-9.214-4.13-9.214-9.233a9.209 9.209 0 019.214-9.214c5.103 0 9.233 4.112 9.233 9.214" fill="#007798"/><path d="M148.53 204.2c0 23.737-12.036 42.988-26.858 42.988-14.84 0-26.877-19.251-26.877-42.988s12.037-42.988 26.877-42.988c14.822 0 26.858 19.251 26.858 42.988M417.205 204.2c0 23.737-12.018 42.988-26.858 42.988-14.86 0-26.877-19.251-26.877-42.988s12.018-42.988 26.877-42.988c14.84 0 26.858 19.251 26.858 42.988" fill="#fbb06b"/><path d="M116.29 202.303c0-91.62 62.556-165.915 139.71-165.915 77.154 0 139.71 74.295 139.71 165.915 0 91.62-62.556 165.915-139.71 165.915-77.154 0-139.71-74.295-139.71-165.915" fill="#fbb06b"/><path d="M256 0c92.592 0 150.458 68.332 150.458 125.263 0 56.95-11.57 79.733-23.158 56.95-11.569-22.784-23.138-45.549-23.138-45.549s-69.435 0-92.593-22.783c0 0 34.727 68.332-34.708 0 0 0 11.57 45.548-57.884-11.383 0 0-34.708 22.765-46.296 79.715-3.196 15.793-23.139 0-23.139-56.95C105.542 68.333 151.838 0 256 0" fill="#373f44"/><path d="M309.06 291.525a3.418 3.418 0 00-2.934-1.644h-98.443a3.441 3.441 0 00-2.934 1.644 3.427 3.427 0 00-.112 3.365c.58 1.159 14.934 28.26 52.258 28.26 37.363 0 51.698-27.101 52.296-28.26a3.478 3.478 0 00-.13-3.365M258.334 249.042c-10.653 0-18.952-1.944-25.587-4.897 2.187 7.944 8.299 19.008 25.587 19.008 17.29 0 23.4-11.064 25.606-19.008-6.653 2.953-14.952 4.897-25.606 4.897" fill="#d68e4c"/><path d="M304.06 220.322h-.168c-5.775 0-10.504-4.728-10.504-10.504v-16.354c0-5.794 4.729-10.522 10.504-10.522h.169c5.775 0 10.504 4.728 10.504 10.522v16.354c0 5.776-4.73 10.504-10.504 10.504M208.106 220.322h-.168c-5.776 0-10.504-4.728-10.504-10.504v-16.354c0-5.794 4.728-10.522 10.504-10.522h.168c5.775 0 10.504 4.728 10.504 10.522v16.354c0 5.776-4.729 10.504-10.504 10.504" fill="#05071e"/></svg>