<svg xmlns="http://www.w3.org/2000/svg" height="512" width="512"><path d="M256.786-.395C315.02-1.56 363.45 19.708 375.747 62.425c31.12 108.102-50.781 234.77 71.647 288.666-102.26 41.56-161.362-12.265-194.822-12.315-33.46-.05-83.23 54.462-186.448 13.003 121.808-55.23 32.754-201.77 73.989-297.372C162.471 2.569 229.55.15 256.786-.395z"/><path d="M211.47 336.324c3.477-4.062 7.082-14.92 7.082-14.92s53.64 13.271 74.481 1.896c-1.724 7.817 2.291 10.984 5.302 15.411-14.605 8.758-25.532 18.94-41.939 26.361-15.707-9.732-28.058-18.58-44.927-28.748zm91.519-19.518c0-.207 0 .823 0 0z" fill="#d79b68"/><path d="M241.804 333.99c-31.203-9.04-54.804-33.91-74.853-58.481-13.693-16.78-23.314-36.24-34.683-54.506-9.93-9.677-15.96-22.303-18.955-35.925-2.361-10.74-2.791-36.064 13.95-25.766 8.081 4.971 13.253 13.423 17.028 22.003.493-19.44 2.774-39.133 12.476-56.53 10.452-18.74 28.118-34.659 49.61-38.157 19.748 22.581 39.444 46.997 68.19 58.622 28.196 11.403 58.703 13.438 88.631 15.065 7.14 8.312 4.28 15.68 4.87 23.748 4.139-8.381 10.47-23.989 18.56-25.855 16.073-3.708 14.008 14.13 12.882 23.995-1.906 16.696-11.74 29.965-21.987 42.279-21.205 39.995-49.012 78.724-88.587 102.058-13.88 8.184-31.47 11.988-47.132 7.45z" fill="#fbb06b"/><path d="M30.111 424.475c30.623-41.077 103.606-50.72 144.698-56.208-16.356 18.112-22.697 31.196-47.265 47.737 37.345 29.3 73.976 63.964 95.98 95.996H15.96c-1.661-26.598-1.113-67.049 14.152-87.525zm354.41-8.47c-15.865-12.533-42.252-36.55-47.337-47.736 52.839 13.06 118.931 26.801 143.267 60.934 19.429 27.25 14.274 54.028 15.59 82.797h-207.5c31.993-31.999 57.773-67.422 95.98-95.996z" fill="#263c25"/><path d="M174.809 368.267c62.437-3.324 110.86-7.716 162.375.002.1 24.431-26.092 144.358-81.211 143.731-55.019-.626-62.996-107.669-81.164-143.733z" fill="#ebf1fa"/><path d="M127.544 416.004c12.152-14.493 47.265-47.737 47.265-47.737 28.78 46.366 61.28 107.05 81.164 143.733-11.723.132-23.36-.048-32.448 0-31.883-31.738-64.284-64.065-95.98-95.996zM255.973 512c11.413-21.876 54.153-101.28 81.211-143.73 0 0 30.184 29.617 47.336 47.734C352.105 448.271 288.54 512 288.54 512c-10.672-.294-23.62.324-32.567 0z" fill="#308733"/><path d="M231.117 466.694c4.808-10.56 12.87-41.001 12.87-41.001 11.622.154 13.442.65 23.867-1.672 4.8 15.604 8.7 27.502 12.882 42.304-8.13 15.932-17.381 32.082-24.763 45.675-9.268-16.702-16.166-29.1-24.856-45.306z" fill="#007798"/><path d="M225.48 404.24c2.677-6.964 9.19-13.076 14.672-18.588 10.364 0 21.195-.1 31.558-.1 4.898 4.874 11.949 12.08 14.819 19.816-3.249 6.908-15.107 22.702-30.206 29.3-15.844-7.096-24.64-18.214-30.842-30.427z" fill="#0e5e7e"/><path d="M174.809 368.267l32.427-35.186 49.16 31.991 46.354-29.389 34.434 32.586-50.655 37.1-30.133-40.297-30.915 39.169z" fill="#cbdadd"/><g fill="#1c2300"><path d="M212.666 180.143c0 6.562-1.144 11.875-7.48 11.88-6.338.006-7.481-5.318-7.481-11.88 0-6.561.612-11.743 7.48-11.88 6.868-.138 7.48 5.319 7.48 11.88zM314.675 180.143c0 6.562-1.143 11.875-7.48 11.88-6.338.006-7.481-5.318-7.481-11.88 0-6.561.612-11.743 7.48-11.88 6.869-.138 7.48 5.319 7.48 11.88z"/></g><path d="M210.707 276.803s30.875 9.5 46.15 9.692c15.425.194 44.815-8.62 44.815-8.62" fill="none" stroke="#d68e4c" stroke-width="15.028" stroke-linecap="round"/></svg>